<svg width="73" height="25" viewBox="0 0 73 25" fill="none" xmlns="http://www.w3.org/2000/svg">
<path d="M11.976 15.024H5.688L4.68 18H0.384L6.48 1.152H11.232L17.328 18H12.984L11.976 15.024ZM10.92 11.856L8.832 5.688L6.768 11.856H10.92ZM22.5673 6.504C22.9513 5.88 23.5033 5.376 24.2233 4.992C24.9433 4.608 25.7673 4.416 26.6953 4.416C27.7993 4.416 28.7993 4.696 29.6953 5.256C30.5913 5.816 31.2953 6.616 31.8073 7.656C32.3353 8.696 32.5993 9.904 32.5993 11.28C32.5993 12.656 32.3353 13.872 31.8073 14.928C31.2953 15.968 30.5913 16.776 29.6953 17.352C28.7993 17.912 27.7993 18.192 26.6953 18.192C25.7513 18.192 24.9273 18.008 24.2233 17.64C23.5193 17.256 22.9673 16.752 22.5673 16.128V18H18.4633V0.24H22.5673V6.504ZM28.4233 11.28C28.4233 10.256 28.1353 9.456 27.5593 8.88C26.9993 8.288 26.3033 7.992 25.4713 7.992C24.6553 7.992 23.9593 8.288 23.3833 8.88C22.8233 9.472 22.5433 10.28 22.5433 11.304C22.5433 12.328 22.8233 13.136 23.3833 13.728C23.9593 14.32 24.6553 14.616 25.4713 14.616C26.2873 14.616 26.9833 14.32 27.5593 13.728C28.1353 13.12 28.4233 12.304 28.4233 11.28ZM47.7124 4.608L39.3124 24.36H34.8964L37.9684 17.544L32.5204 4.608H37.1044L40.2004 12.984L43.2724 4.608H47.7124ZM53.9244 18.192C52.7564 18.192 51.7164 17.992 50.8044 17.592C49.8924 17.192 49.1724 16.648 48.6444 15.96C48.1164 15.256 47.8204 14.472 47.7564 13.608H51.8124C51.8604 14.072 52.0764 14.448 52.4604 14.736C52.8444 15.024 53.3164 15.168 53.8764 15.168C54.3884 15.168 54.7804 15.072 55.0524 14.88C55.3404 14.672 55.4844 14.408 55.4844 14.088C55.4844 13.704 55.2844 13.424 54.8844 13.248C54.4844 13.056 53.8364 12.848 52.9404 12.624C51.9804 12.4 51.1804 12.168 50.5404 11.928C49.9004 11.672 49.3484 11.28 48.8844 10.752C48.4204 10.208 48.1884 9.48 48.1884 8.568C48.1884 7.8 48.3964 7.104 48.8124 6.48C49.2444 5.84 49.8684 5.336 50.6844 4.968C51.5164 4.6 52.5004 4.416 53.6364 4.416C55.3164 4.416 56.6364 4.832 57.5964 5.664C58.5724 6.496 59.1324 7.6 59.2764 8.976H55.4844C55.4204 8.512 55.2124 8.144 54.8604 7.872C54.5244 7.6 54.0764 7.464 53.5164 7.464C53.0364 7.464 52.6684 7.56 52.4124 7.752C52.1564 7.928 52.0284 8.176 52.0284 8.496C52.0284 8.88 52.2284 9.168 52.6284 9.36C53.0444 9.552 53.6844 9.744 54.5484 9.936C55.5404 10.192 56.3484 10.448 56.9724 10.704C57.5964 10.944 58.1404 11.344 58.6044 11.904C59.0844 12.448 59.3324 13.184 59.3484 14.112C59.3484 14.896 59.1244 15.6 58.6764 16.224C58.2444 16.832 57.6124 17.312 56.7804 17.664C55.9644 18.016 55.0124 18.192 53.9244 18.192ZM66.5872 18.192C65.4192 18.192 64.3792 17.992 63.4672 17.592C62.5552 17.192 61.8352 16.648 61.3072 15.96C60.7792 15.256 60.4832 14.472 60.4192 13.608H64.4752C64.5232 14.072 64.7392 14.448 65.1232 14.736C65.5072 15.024 65.9792 15.168 66.5392 15.168C67.0512 15.168 67.4432 15.072 67.7152 14.88C68.0032 14.672 68.1472 14.408 68.1472 14.088C68.1472 13.704 67.9472 13.424 67.5472 13.248C67.1472 13.056 66.4992 12.848 65.6032 12.624C64.6432 12.4 63.8432 12.168 63.2032 11.928C62.5632 11.672 62.0112 11.28 61.5472 10.752C61.0832 10.208 60.8512 9.48 60.8512 8.568C60.8512 7.8 61.0592 7.104 61.4752 6.48C61.9072 5.84 62.5312 5.336 63.3472 4.968C64.1792 4.6 65.1632 4.416 66.2992 4.416C67.9792 4.416 69.2992 4.832 70.2592 5.664C71.2352 6.496 71.7952 7.6 71.9392 8.976H68.1472C68.0832 8.512 67.8752 8.144 67.5232 7.872C67.1872 7.6 66.7392 7.464 66.1792 7.464C65.6992 7.464 65.3312 7.56 65.0752 7.752C64.8192 7.928 64.6912 8.176 64.6912 8.496C64.6912 8.88 64.8912 9.168 65.2912 9.36C65.7072 9.552 66.3472 9.744 67.2112 9.936C68.2032 10.192 69.0112 10.448 69.6352 10.704C70.2592 10.944 70.8032 11.344 71.2672 11.904C71.7472 12.448 71.9952 13.184 72.0113 14.112C72.0113 14.896 71.7872 15.6 71.3392 16.224C70.9072 16.832 70.2752 17.312 69.4432 17.664C68.6272 18.016 67.6752 18.192 66.5872 18.192Z" fill="#3BA3C9"/>
</svg>
